<svg width="30" height="30" viewBox="0 0 30 30" fill="none" xmlns="http://www.w3.org/2000/svg">
<path d="M23.4375 27.7L20 23.95L21.45 22.5L23.4375 24.4875L27.925 20L29.375 21.7625L23.4375 27.7ZM13.75 18.75H16.25V21.25H13.75V18.75ZM13.75 8.75H16.25V16.25H13.75V8.75ZM15 2.5C21.875 2.5 27.5 8.125 27.5 15L27.4 16.6375C26.6375 16.3875 25.8375 16.25 24.925 16.25L25 15C25 9.475 20.525 5 15 5C9.475 5 5 9.475 5 15C5 20.525 9.475 25 15 25C15.8875 25 16.7375 24.8875 17.5625 24.675C17.6625 25.525 17.9125 26.325 18.275 27.0625C17.225 27.35 16.125 27.5 15 27.5C8.0875 27.5 2.5 21.875 2.5 15C2.5 8.125 8.0875 2.5 15 2.5Z" fill="#FFB800"/>
</svg>
