<svg width="29" height="30" viewBox="0 0 29 30" fill="none" xmlns="http://www.w3.org/2000/svg">
<path d="M11.7148 21.4013C12.3496 21.7236 12.9209 22.1191 13.4287 22.5879C13.9365 23.0566 14.376 23.584 14.7471 24.1699C15.1182 24.7558 15.3965 25.3808 15.582 26.0449C15.7676 26.709 15.8652 27.4023 15.875 28.125H14C14 27.3535 13.8535 26.6259 13.5605 25.9424C13.2676 25.2588 12.8672 24.6631 12.3594 24.1552C11.8516 23.6474 11.251 23.2422 10.5576 22.9394C9.86426 22.6367 9.13672 22.4902 8.375 22.5C7.59375 22.5 6.86621 22.6465 6.19238 22.9394C5.51855 23.2324 4.92285 23.6328 4.40527 24.1406C3.8877 24.6484 3.48242 25.249 3.18945 25.9424C2.89648 26.6357 2.75 27.3633 2.75 28.125H0.875C0.875 27.4121 0.972656 26.7236 1.16797 26.0595C1.36328 25.3955 1.6416 24.7705 2.00293 24.1845C2.36426 23.5986 2.79883 23.0713 3.30664 22.6025C3.81445 22.1338 4.39062 21.7334 5.03516 21.4013C4.3125 20.8642 3.75098 20.2002 3.35059 19.4091C2.9502 18.6181 2.75 17.7734 2.75 16.875C2.75 16.1035 2.89648 15.3759 3.18945 14.6924C3.48242 14.0088 3.88281 13.4131 4.39062 12.9052C4.89844 12.3974 5.49414 11.9922 6.17773 11.6894C6.86133 11.3867 7.59375 11.2402 8.375 11.25C9.27344 11.25 10.1182 11.4502 10.9092 11.8506C11.7002 12.2509 12.3643 12.8125 12.9014 13.5351C13.2725 12.8027 13.7461 12.1484 14.3223 11.5722C14.8984 10.9961 15.5527 10.5224 16.2852 10.1513C15.5625 9.61423 15.001 8.95016 14.6006 8.15915C14.2002 7.36813 14 6.52341 14 5.62497C14 4.85349 14.1465 4.12595 14.4395 3.44235C14.7324 2.75876 15.1328 2.16306 15.6406 1.65524C16.1484 1.14743 16.7441 0.742157 17.4277 0.439423C18.1113 0.136688 18.8438 -0.00979614 19.625 -3.05176e-05C20.3965 -3.05176e-05 21.124 0.146454 21.8076 0.439423C22.4912 0.732391 23.0869 1.13278 23.5947 1.64059C24.1025 2.14841 24.5078 2.74899 24.8105 3.44235C25.1133 4.13571 25.2598 4.86325 25.25 5.62497C25.25 6.52341 25.0498 7.36813 24.6494 8.15915C24.249 8.95016 23.6875 9.61423 22.9648 10.1513C23.5996 10.4736 24.1709 10.8691 24.6787 11.3379C25.1865 11.8066 25.626 12.334 25.9971 12.9199C26.3682 13.5058 26.6465 14.1308 26.832 14.7949C27.0176 15.459 27.1152 16.1523 27.125 16.875H25.25C25.25 16.1035 25.1035 15.3759 24.8105 14.6924C24.5176 14.0088 24.1172 13.4131 23.6094 12.9052C23.1016 12.3974 22.501 11.9922 21.8076 11.6894C21.1143 11.3867 20.3867 11.2402 19.625 11.25C18.8438 11.25 18.1162 11.3965 17.4424 11.6894C16.7686 11.9824 16.1729 12.3828 15.6553 12.8906C15.1377 13.3984 14.7324 13.999 14.4395 14.6924C14.1465 15.3857 14 16.1133 14 16.875C14 17.7734 13.7998 18.6181 13.3994 19.4091C12.999 20.2002 12.4375 20.8642 11.7148 21.4013ZM15.875 5.62497C15.875 6.14255 15.9727 6.62595 16.168 7.07516C16.3633 7.52438 16.6318 7.92477 16.9736 8.27634C17.3154 8.6279 17.7109 8.89645 18.1602 9.082C18.6094 9.26755 19.0977 9.3652 19.625 9.37497C20.1426 9.37497 20.626 9.27731 21.0752 9.082C21.5244 8.88669 21.9248 8.61813 22.2764 8.27634C22.6279 7.93454 22.8965 7.53903 23.082 7.08981C23.2676 6.64059 23.3652 6.15231 23.375 5.62497C23.375 5.10739 23.2773 4.62399 23.082 4.17477C22.8867 3.72556 22.6182 3.32516 22.2764 2.9736C21.9346 2.62204 21.5391 2.35349 21.0898 2.16794C20.6406 1.98239 20.1523 1.88474 19.625 1.87497C19.1074 1.87497 18.624 1.97263 18.1748 2.16794C17.7256 2.36325 17.3252 2.63181 16.9736 2.9736C16.6221 3.3154 16.3535 3.71091 16.168 4.16013C15.9824 4.60934 15.8848 5.09763 15.875 5.62497ZM4.625 16.875C4.625 17.3925 4.72266 17.8759 4.91797 18.3252C5.11328 18.7744 5.38184 19.1748 5.72363 19.5263C6.06543 19.8779 6.46094 20.1465 6.91016 20.332C7.35938 20.5175 7.84766 20.6152 8.375 20.625C8.89258 20.625 9.37598 20.5273 9.8252 20.332C10.2744 20.1367 10.6748 19.8681 11.0264 19.5263C11.3779 19.1845 11.6465 18.789 11.832 18.3398C12.0176 17.8906 12.1152 17.4023 12.125 16.875C12.125 16.3574 12.0273 15.874 11.832 15.4248C11.6367 14.9756 11.3682 14.5752 11.0264 14.2236C10.6846 13.872 10.2891 13.6035 9.83984 13.4179C9.39062 13.2324 8.90234 13.1347 8.375 13.125C7.85742 13.125 7.37402 13.2226 6.9248 13.4179C6.47559 13.6133 6.0752 13.8818 5.72363 14.2236C5.37207 14.5654 5.10352 14.9609 4.91797 15.4101C4.73242 15.8593 4.63477 16.3476 4.625 16.875ZM26.6562 30L22.4375 26.7041L18.2188 30L19.918 24.7265L15.875 21.5625H20.9287L22.4375 16.875L23.9463 21.5625H29L24.957 24.7265L26.6562 30Z" fill="#FFB800"/>
</svg>
