<svg width="40" height="40" viewBox="0 0 40 40" fill="none" xmlns="http://www.w3.org/2000/svg">
<g clip-path="url(#clip0_559_6621)">
<path d="M30.4037 23.3833C30.6161 23.4363 30.816 23.5307 30.992 23.661C31.168 23.7913 31.3165 23.955 31.4292 24.1428C31.5419 24.3305 31.6165 24.5386 31.6487 24.7552C31.6809 24.9718 31.6701 25.1926 31.617 25.405L30.467 30H31.667V28.3333C31.667 27.8913 31.8426 27.4674 32.1551 27.1548C32.4677 26.8423 32.8916 26.6667 33.3337 26.6667C33.7757 26.6667 34.1996 26.8423 34.5122 27.1548C34.8247 27.4674 35.0003 27.8913 35.0003 28.3333V30C35.4423 30 35.8663 30.1756 36.1788 30.4882C36.4914 30.8007 36.667 31.2246 36.667 31.6667C36.667 32.1087 36.4914 32.5326 36.1788 32.8452C35.8663 33.1577 35.4423 33.3333 35.0003 33.3333V35C35.0003 35.442 34.8247 35.866 34.5122 36.1785C34.1996 36.4911 33.7757 36.6667 33.3337 36.6667C32.8916 36.6667 32.4677 36.4911 32.1551 36.1785C31.8426 35.866 31.667 35.442 31.667 35V33.3333H28.3337C28.0805 33.3333 27.8307 33.2755 27.6032 33.1645C27.3756 33.0535 27.1764 32.8921 27.0206 32.6925C26.8648 32.493 26.7564 32.2606 26.7038 32.013C26.6512 31.7653 26.6557 31.509 26.717 31.2633L28.3837 24.5967C28.4907 24.168 28.7637 23.7993 29.1425 23.5718C29.5213 23.3443 29.9749 23.2765 30.4037 23.3833ZM22.5003 23.3333C23.5582 23.3332 24.5765 23.7354 25.3487 24.4584C26.121 25.1814 26.5893 26.1711 26.6587 27.2267L26.667 27.5V28.0417C26.667 29.0417 26.3503 30.01 25.7653 30.8133L25.532 31.105L23.6253 33.3333H25.0003C25.4251 33.3338 25.8337 33.4965 26.1426 33.7881C26.4515 34.0797 26.6374 34.4783 26.6623 34.9023C26.6872 35.3264 26.5492 35.744 26.2765 36.0697C26.0039 36.3955 25.6171 36.6048 25.1953 36.655L25.0003 36.6667H20.0003C19.6997 36.6668 19.4047 36.5857 19.1464 36.4318C18.8882 36.278 18.6763 36.0571 18.5334 35.7927C18.3904 35.5283 18.3216 35.2301 18.3343 34.9298C18.3469 34.6294 18.4406 34.3381 18.6053 34.0867L18.7353 33.915L23.002 28.9367C23.1719 28.7382 23.2818 28.4953 23.3187 28.2367L23.3337 28.0417V27.5C23.3337 27.279 23.2459 27.067 23.0896 26.9107C22.9333 26.7545 22.7213 26.6667 22.5003 26.6667C22.2793 26.6667 22.0673 26.7545 21.9111 26.9107C21.7548 27.067 21.667 27.279 21.667 27.5C21.667 27.942 21.4914 28.366 21.1788 28.6785C20.8663 28.9911 20.4423 29.1667 20.0003 29.1667C19.5583 29.1667 19.1344 28.9911 18.8218 28.6785C18.5092 28.366 18.3337 27.942 18.3337 27.5C18.3337 26.3949 18.7726 25.3351 19.554 24.5537C20.3354 23.7723 21.3953 23.3333 22.5003 23.3333ZM20.0003 5C26.992 5 32.862 9.78333 34.527 16.25C34.6375 16.6781 34.5734 17.1326 34.3488 17.5134C34.1243 17.8943 33.7576 18.1703 33.3295 18.2808C32.9014 18.3913 32.4469 18.3273 32.0661 18.1027C31.6852 17.8781 31.4092 17.5114 31.2987 17.0833C30.8172 15.2219 29.8831 13.5083 28.5795 12.095C27.2759 10.6817 25.6432 9.61248 23.8266 8.98246C22.0101 8.35243 20.0659 8.18114 18.1672 8.48381C16.2685 8.78648 14.474 9.55373 12.9433 10.7173C11.4127 11.8809 10.1933 13.4047 9.39375 15.1533C8.59417 16.9019 8.23915 18.8209 8.36025 20.7398C8.48135 22.6587 9.07483 24.5179 10.0879 26.1521C11.101 27.7863 12.5022 29.1447 14.167 30.1067C14.5298 30.3373 14.7894 30.6991 14.8917 31.1167C14.9939 31.5342 14.9309 31.9751 14.7158 32.3473C14.5007 32.7194 14.1501 32.9941 13.7372 33.1139C13.3244 33.2336 12.8812 33.1893 12.5003 32.99C9.64088 31.3389 7.40613 28.7905 6.14263 25.7399C4.87914 22.6893 4.6575 19.307 5.51211 16.1177C6.36671 12.9283 8.24979 10.11 10.8693 8.09988C13.4888 6.08977 16.6984 5.00015 20.0003 5ZM20.0003 11.6667C20.4085 11.6667 20.8026 11.8166 21.1076 12.0879C21.4127 12.3591 21.6076 12.7329 21.6553 13.1383L21.667 13.3333V20C21.6669 20.4082 21.5171 20.8022 21.2458 21.1073C20.9745 21.4123 20.6007 21.6072 20.1953 21.655L20.0003 21.6667H16.667C16.2422 21.6662 15.8336 21.5035 15.5247 21.2119C15.2158 20.9203 15.0299 20.5217 15.005 20.0977C14.9801 19.6736 15.1181 19.256 15.3908 18.9303C15.6634 18.6045 16.0502 18.3952 16.472 18.345L16.667 18.3333H18.3337V13.3333C18.3337 12.8913 18.5092 12.4674 18.8218 12.1548C19.1344 11.8423 19.5583 11.6667 20.0003 11.6667Z" fill="#4F4D4A"/>
</g>
<defs>
<clipPath id="clip0_559_6621">
<rect width="40" height="40" fill="white"/>
</clipPath>
</defs>
</svg>
