<svg width="40" height="40" viewBox="0 0 40 40" fill="none" xmlns="http://www.w3.org/2000/svg">
<path d="M19.9997 10.8333C21.1047 10.8333 22.1646 11.2722 22.946 12.0536C23.7274 12.835 24.1663 13.8949 24.1663 14.9999C24.1663 15.5471 24.0586 16.0889 23.8492 16.5944C23.6398 17.1 23.3329 17.5593 22.946 17.9462C22.559 18.3331 22.0997 18.64 21.5942 18.8494C21.0887 19.0588 20.5468 19.1666 19.9997 19.1666C18.8946 19.1666 17.8348 18.7276 17.0534 17.9462C16.272 17.1648 15.833 16.105 15.833 14.9999C15.833 13.8949 16.272 12.835 17.0534 12.0536C17.8348 11.2722 18.8946 10.8333 19.9997 10.8333ZM19.9997 3.33325C23.0939 3.33325 26.0613 4.56242 28.2493 6.75034C30.4372 8.93826 31.6663 11.9057 31.6663 14.9999C31.6663 23.7499 19.9997 36.6666 19.9997 36.6666C19.9997 36.6666 8.33301 23.7499 8.33301 14.9999C8.33301 11.9057 9.56217 8.93826 11.7501 6.75034C13.938 4.56242 16.9055 3.33325 19.9997 3.33325ZM19.9997 6.66659C17.7895 6.66659 15.6699 7.54456 14.1071 9.10736C12.5443 10.6702 11.6663 12.7898 11.6663 14.9999C11.6663 16.6666 11.6663 19.9999 19.9997 31.1833C28.333 19.9999 28.333 16.6666 28.333 14.9999C28.333 12.7898 27.455 10.6702 25.8922 9.10736C24.3294 7.54456 22.2098 6.66659 19.9997 6.66659Z" fill="#4F4D4A"/>
</svg>
