<svg width="40" height="40" viewBox="0 0 40 40" fill="none" xmlns="http://www.w3.org/2000/svg">
<g clip-path="url(#clip0_559_6633)">
<path d="M40 22.5001V30.0001H32.5V27.5001H35.4883C34.9544 26.6928 34.2513 26.0743 33.3789 25.6447C32.5065 25.215 31.5885 25.0001 30.625 25.0001C29.9219 25.0001 29.2318 25.1173 28.5547 25.3517C27.8776 25.5861 27.2786 25.9246 26.7578 26.3673C26.237 26.81 25.8138 27.3374 25.4883 27.9493C25.1628 28.5613 25 29.2449 25 30.0001H22.5C22.5 28.8934 22.7214 27.8842 23.1641 26.9728C23.6068 26.0613 24.2122 25.267 24.9805 24.59C25.7487 23.9129 26.6146 23.3986 27.5781 23.047C28.5417 22.6954 29.5573 22.5131 30.625 22.5001C31.3021 22.5001 31.9661 22.5717 32.6172 22.715C33.2682 22.8582 33.8932 23.0861 34.4922 23.3986C35.0911 23.7111 35.6445 24.0756 36.1523 24.4923C36.6602 24.909 37.1094 25.4103 37.5 25.9962V22.5001H40ZM31.875 37.5001C32.5781 37.5001 33.2617 37.3829 33.9258 37.1486C34.5898 36.9142 35.1888 36.5756 35.7227 36.1329C36.2565 35.6902 36.6862 35.1629 37.0117 34.5509C37.3372 33.9389 37.5 33.2553 37.5 32.5001H40C40 33.6069 39.7786 34.616 39.3359 35.5275C38.8932 36.4389 38.2878 37.2332 37.5195 37.9103C36.7513 38.5874 35.8854 39.1017 34.9219 39.4532C33.9583 39.8048 32.9427 39.9871 31.875 40.0001C31.1979 40.0001 30.5339 39.9285 29.8828 39.7853C29.2318 39.642 28.6068 39.4142 28.0078 39.1017C27.4089 38.7892 26.8555 38.4246 26.3477 38.0079C25.8398 37.5913 25.3906 37.09 25 36.504V40.0001H22.5V32.5001H30V35.0001H27.0117C27.5456 35.8074 28.2487 36.4259 29.1211 36.8556C29.9935 37.2853 30.9115 37.5001 31.875 37.5001ZM27.5 15.0001C26.4714 15.0001 25.5013 15.1954 24.5898 15.5861C23.6784 15.9767 22.8841 16.5105 22.207 17.1876C21.5299 17.8647 20.9961 18.659 20.6055 19.5704C20.2148 20.4819 20.013 21.4519 20 22.4806C20 23.6915 19.7331 24.8243 19.1992 25.879C18.6654 26.9337 17.9036 27.8256 16.9141 28.5548C17.5 28.8543 18.0534 29.2059 18.5742 29.6095C19.0951 30.0131 19.5703 30.4624 20 30.9572L18.0078 32.5001C17.3047 31.7059 16.4779 31.0939 15.5273 30.6642C14.5768 30.2345 13.5677 30.0131 12.5 30.0001C11.4583 30.0001 10.4883 30.1954 9.58984 30.5861C8.69141 30.9767 7.89714 31.5105 7.20703 32.1876C6.51693 32.8647 5.97656 33.6655 5.58594 34.59C5.19531 35.5144 5 36.4845 5 37.5001H2.5C2.5 36.5496 2.63021 35.6316 2.89062 34.7462C3.15104 33.8608 3.52214 33.021 4.00391 32.2267C4.48568 31.4324 5.07161 30.7293 5.76172 30.1173C6.45182 29.5053 7.22005 28.978 8.06641 28.5353C7.10286 27.8322 6.35417 26.9532 5.82031 25.8986C5.28646 24.8439 5.01302 23.7111 5 22.5001C5 21.4715 5.19531 20.5014 5.58594 19.59C5.97656 18.6785 6.51042 17.8842 7.1875 17.2072C7.86458 16.5301 8.65885 15.9897 9.57031 15.5861C10.4818 15.1824 11.4583 14.9871 12.5 15.0001C13.6979 15.0001 14.8242 15.267 15.8789 15.8009C16.9336 16.3348 17.819 17.09 18.5352 18.0665C19.0299 17.09 19.6615 16.2176 20.4297 15.4493C21.1979 14.6811 22.0768 14.0431 23.0664 13.5353C22.1029 12.8322 21.3542 11.9532 20.8203 10.8986C20.2865 9.84387 20.013 8.71106 20 7.50012C20 6.47148 20.1953 5.50142 20.5859 4.58997C20.9766 3.67851 21.5104 2.88424 22.1875 2.20715C22.8646 1.53007 23.6589 0.989705 24.5703 0.58606C25.4818 0.182414 26.4583 -0.0128988 27.5 0.00012207C28.5286 0.00012207 29.4987 0.195435 30.4102 0.58606C31.3216 0.976685 32.1159 1.51054 32.793 2.18762C33.4701 2.86471 34.0104 3.66549 34.4141 4.58997C34.8177 5.51444 35.013 6.4845 35 7.50012C35 8.69804 34.7331 9.82434 34.1992 10.879C33.6654 11.9337 32.9102 12.8191 31.9336 13.5353C33.2357 14.1863 34.3359 15.0717 35.2344 16.1915C36.1328 17.3113 36.7708 18.5809 37.1484 20.0001H34.5312C34.2708 19.2579 33.9062 18.5809 33.4375 17.9689C32.9688 17.3569 32.4284 16.8295 31.8164 16.3868C31.2044 15.9441 30.5339 15.6056 29.8047 15.3712C29.0755 15.1368 28.3073 15.0131 27.5 15.0001ZM27.5 2.50012C26.8099 2.50012 26.1654 2.63033 25.5664 2.89075C24.9674 3.15116 24.4336 3.50924 23.9648 3.96497C23.4961 4.42069 23.138 4.94804 22.8906 5.547C22.6432 6.14596 22.513 6.797 22.5 7.50012C22.5 8.19023 22.6302 8.83476 22.8906 9.43372C23.151 10.0327 23.5091 10.5665 23.9648 11.0353C24.4206 11.504 24.9479 11.8621 25.5469 12.1095C26.1458 12.3569 26.7969 12.4871 27.5 12.5001C28.1901 12.5001 28.8346 12.3699 29.4336 12.1095C30.0326 11.8491 30.5664 11.491 31.0352 11.0353C31.5039 10.5795 31.862 10.0522 32.1094 9.45325C32.3568 8.85429 32.487 8.20325 32.5 7.50012C32.5 6.81002 32.3698 6.16549 32.1094 5.56653C31.849 4.96757 31.4909 4.43372 31.0352 3.96497C30.5794 3.49622 30.0521 3.13814 29.4531 2.89075C28.8542 2.64335 28.2031 2.51314 27.5 2.50012ZM12.5 27.5001C13.1901 27.5001 13.8346 27.3699 14.4336 27.1095C15.0326 26.8491 15.5664 26.491 16.0352 26.0353C16.5039 25.5795 16.862 25.0522 17.1094 24.4532C17.3568 23.8543 17.487 23.2032 17.5 22.5001C17.5 21.81 17.3698 21.159 17.1094 20.547C16.849 19.935 16.4974 19.4077 16.0547 18.965C15.612 18.5223 15.0781 18.1642 14.4531 17.8907C13.8281 17.6173 13.1771 17.4871 12.5 17.5001C11.8099 17.5001 11.1654 17.6303 10.5664 17.8907C9.96745 18.1512 9.43359 18.5092 8.96484 18.965C8.49609 19.4207 8.13802 19.948 7.89062 20.547C7.64323 21.146 7.51302 21.797 7.5 22.5001C7.5 23.1902 7.63021 23.8348 7.89062 24.4337C8.15104 25.0327 8.50911 25.5665 8.96484 26.0353C9.42057 26.504 9.94792 26.8621 10.5469 27.1095C11.1458 27.3569 11.7969 27.4871 12.5 27.5001Z" fill="#4F4D4A"/>
</g>
<defs>
<clipPath id="clip0_559_6633">
<rect width="40" height="40" fill="white"/>
</clipPath>
</defs>
</svg>
