<svg width="30" height="30" viewBox="0 0 30 30" fill="none" xmlns="http://www.w3.org/2000/svg">
<g clip-path="url(#clip0_761_2811)">
<path d="M26.25 19.8376C26.2981 19.7408 26.3229 19.6342 26.3226 19.5261C26.3223 19.4181 26.2968 19.3116 26.2481 19.2151L25.35 17.9063C25.3331 17.882 25.3238 17.8538 25.3238 17.822C25.3238 17.7901 25.3331 17.762 25.35 17.7376L26.25 16.4251C26.2981 16.3283 26.3229 16.2217 26.3226 16.1136C26.3223 16.0056 26.2968 15.8991 26.2481 15.8026C26.2108 15.701 26.1519 15.6086 26.0756 15.5319C25.9992 15.4552 25.9071 15.3959 25.8056 15.3582L24.2625 14.7938C24.234 14.7841 24.2086 14.767 24.1888 14.7443C24.1691 14.7216 24.1557 14.694 24.15 14.6645V13.0876C24.1441 12.976 24.1123 12.8673 24.0574 12.7701C24.0024 12.6728 23.9256 12.5896 23.8331 12.527C23.7056 12.4397 23.5545 12.3933 23.4 12.3938H23.0813L21.4875 12.8063C21.4448 12.8235 21.3971 12.8235 21.3544 12.8063L20.325 11.5876C20.2499 11.5059 20.1586 11.4406 20.0569 11.396C19.9552 11.3514 19.8454 11.3284 19.7344 11.3284C19.6234 11.3284 19.5136 11.3514 19.4119 11.396C19.3102 11.4406 19.2189 11.5059 19.1438 11.5876L18.1125 12.8063C18.0698 12.8235 18.0221 12.8235 17.9794 12.8063H17.9813L16.2938 12.3751H16.0913C15.935 12.3746 15.7822 12.421 15.6525 12.5082C15.5608 12.5711 15.4847 12.6541 15.4301 12.751C15.3755 12.8478 15.3438 12.9559 15.3375 13.067V14.6438C15.3321 14.6735 15.3191 14.7012 15.2997 14.7242C15.2803 14.7472 15.2552 14.7648 15.2269 14.7751L13.6875 15.3376C13.5114 15.3663 13.3512 15.4565 13.2352 15.592C13.1193 15.7276 13.055 15.8998 13.0538 16.0782C13.0538 16.1907 13.08 16.2976 13.1269 16.3913L14.025 17.7001C14.0419 17.7245 14.0513 17.7526 14.0513 17.7845C14.0513 17.8163 14.0419 17.8445 14.025 17.8688L13.125 19.1813C13.077 19.2781 13.0521 19.3847 13.0524 19.4928C13.0528 19.6008 13.0782 19.7073 13.1269 19.8038C13.1642 19.9054 13.2231 19.9978 13.2995 20.0745C13.3758 20.1512 13.4679 20.2105 13.5694 20.2482L15.1125 20.8126C15.141 20.8223 15.1664 20.8394 15.1862 20.8621C15.206 20.8848 15.2193 20.9124 15.225 20.942V22.5188C15.231 22.6304 15.2627 22.7391 15.3177 22.8363C15.3726 22.9336 15.4494 23.0168 15.5419 23.0795C15.6715 23.1667 15.8244 23.213 15.9806 23.2126H16.2956L16.8769 23.0813V30.0001L19.7456 26.2501L22.5019 30.0001V23.0813L23.0831 23.2313H23.3044C23.4607 23.2318 23.6135 23.1854 23.7431 23.0982C23.8349 23.0353 23.9109 22.9523 23.9655 22.8554C24.0201 22.7586 24.0518 22.6505 24.0581 22.5395V20.9626C24.0635 20.9329 24.0766 20.9052 24.096 20.8822C24.1154 20.8592 24.1405 20.8416 24.1688 20.8313L25.7081 20.2688C25.8256 20.2456 25.936 20.195 26.0301 20.121C26.1243 20.047 26.1996 19.9518 26.25 19.8432V19.8376Z" fill="#FFB800"/>
<path d="M0 1.875V24.375H15L14.7937 24.2812C14.5267 24.0984 14.3051 23.8568 14.1458 23.575C13.9866 23.2932 13.8939 22.9787 13.875 22.6556V22.5H1.875V3.75H28.125V22.5H25.4437V22.65C25.4255 22.9727 25.334 23.287 25.1761 23.569C25.0182 23.851 24.7981 24.0933 24.5325 24.2775L24.375 24.375H30V1.875H0Z" fill="#FFB800"/>
<path d="M13.9312 12.9562C13.9374 12.6206 14.0232 12.2912 14.1816 11.9952C14.3401 11.6991 14.5666 11.445 14.8425 11.2537C14.8946 11.2401 14.9492 11.2388 15.0019 11.25H5.625V13.125H13.9312V12.9562ZM12.0375 15H5.625V16.875H11.925C11.7959 16.636 11.7211 16.3714 11.7058 16.1001C11.6906 15.8289 11.7354 15.5576 11.8369 15.3056C11.8668 15.1838 11.9376 15.0759 12.0375 15ZM5.625 7.5H24.375V9.375H5.625V7.5Z" fill="#FFB800"/>
</g>
<defs>
<clipPath id="clip0_761_2811">
<rect width="30" height="30" fill="white"/>
</clipPath>
</defs>
</svg>
