<svg width="25" height="25" viewBox="0 0 25 25" fill="none" xmlns="http://www.w3.org/2000/svg">
<g id="fa:question-circle" clip-path="url(#clip0_1027_2437)">
<path id="Vector" d="M14.5833 20.3125V17.1875C14.5833 17.0356 14.5345 16.9108 14.4368 16.8132C14.3392 16.7155 14.2144 16.6667 14.0625 16.6667H10.9375C10.7856 16.6667 10.6608 16.7155 10.5632 16.8132C10.4655 16.9108 10.4167 17.0356 10.4167 17.1875V20.3125C10.4167 20.4644 10.4655 20.5892 10.5632 20.6868C10.6608 20.7845 10.7856 20.8333 10.9375 20.8333H14.0625C14.2144 20.8333 14.3392 20.7845 14.4368 20.6868C14.5345 20.5892 14.5833 20.4644 14.5833 20.3125ZM18.75 9.375C18.75 8.42014 18.4489 7.53581 17.8467 6.722C17.2445 5.9082 16.4931 5.27886 15.5924 4.83398C14.6918 4.38911 13.7695 4.16667 12.8255 4.16667C10.1888 4.16667 8.176 5.32227 6.78711 7.63346C6.62435 7.89388 6.66775 8.12174 6.91732 8.31706L9.06575 9.94466C9.14171 10.0098 9.24479 10.0423 9.375 10.0423C9.54861 10.0423 9.68424 9.97721 9.7819 9.847C10.357 9.10916 10.8236 8.61003 11.1816 8.34961C11.5506 8.08919 12.0171 7.95898 12.5814 7.95898C13.1022 7.95898 13.5661 8.10004 13.973 8.38216C14.3799 8.66428 14.5833 8.98438 14.5833 9.34245C14.5833 9.75477 14.4748 10.0857 14.2578 10.3353C14.0408 10.5849 13.6719 10.829 13.151 11.0677C12.4674 11.3715 11.8408 11.8408 11.2712 12.4756C10.7015 13.1104 10.4167 13.7912 10.4167 14.5182V15.1042C10.4167 15.2561 10.4655 15.3809 10.5632 15.4785C10.6608 15.5762 10.7856 15.625 10.9375 15.625H14.0625C14.2144 15.625 14.3392 15.5762 14.4368 15.4785C14.5345 15.3809 14.5833 15.2561 14.5833 15.1042C14.5833 14.898 14.7 14.6294 14.9333 14.2985C15.1666 13.9676 15.4622 13.699 15.8203 13.4928C16.1675 13.2975 16.4334 13.1429 16.6178 13.029C16.8023 12.915 17.0519 12.7252 17.3665 12.4593C17.6812 12.1935 17.9226 11.9331 18.0908 11.6781C18.259 11.4231 18.4109 11.0948 18.5465 10.6934C18.6822 10.2919 18.75 9.85243 18.75 9.375ZM25 12.5C25 14.7678 24.4412 16.8593 23.3236 18.7744C22.2059 20.6896 20.6896 22.2059 18.7744 23.3236C16.8593 24.4412 14.7678 25 12.5 25C10.2322 25 8.14073 24.4412 6.22559 23.3236C4.31044 22.2059 2.79405 20.6896 1.67643 18.7744C0.558811 16.8593 0 14.7678 0 12.5C0 10.2322 0.558811 8.14073 1.67643 6.22559C2.79405 4.31044 4.31044 2.79405 6.22559 1.67643C8.14073 0.558811 10.2322 0 12.5 0C14.7678 0 16.8593 0.558811 18.7744 1.67643C20.6896 2.79405 22.2059 4.31044 23.3236 6.22559C24.4412 8.14073 25 10.2322 25 12.5Z" fill="#FFB800"/>
</g>
<defs>
<clipPath id="clip0_1027_2437">
<rect width="25" height="25" fill="white"/>
</clipPath>
</defs>
</svg>
